<?xml version="1.0" encoding="UTF-8"?>
<svg xmlns="http://www.w3.org/2000/svg" width="174" height="88" viewBox="0 0 174 88" fill="none">
  <g clip-path="url(#clip0_980_21632)">
    <rect width="174" height="88" fill="#231F1F"></rect>
    <path d="M0 0H174V88H0V0Z" fill="#231F1F"></path>
    <path d="M120.444 59.5351C120.444 59.3413 120.314 59.2444 120.088 59.2444H119.699V60.2133H119.861V59.7934H120.023L120.282 60.2133H120.444L120.152 59.7934C120.314 59.7611 120.444 59.6966 120.444 59.5351ZM119.861 59.6643V59.3736H120.055C120.152 59.3736 120.282 59.4059 120.282 59.5028C120.282 59.6643 120.152 59.6643 120.055 59.6643H119.861ZM120.055 58.8892C119.57 58.8892 119.182 59.2444 119.182 59.7289C119.182 60.2133 119.57 60.5685 120.055 60.5685C120.508 60.5685 120.929 60.2133 120.929 59.7289C120.897 59.2444 120.508 58.8892 120.055 58.8892ZM120.055 60.4394C119.667 60.4394 119.376 60.1487 119.376 59.7289C119.376 59.3413 119.667 59.0183 120.055 59.0183C120.444 59.0183 120.735 59.309 120.735 59.7289C120.735 60.1487 120.444 60.4394 120.055 60.4394Z" fill="#CAAD59"></path>
    <path d="M45.597 68.3525V62.959C45.6617 61.6995 45.2087 60.7629 44.2379 60.0201C42.2964 58.8897 39.9018 59.8586 38.2515 60.9244L38.1868 59.4387H37.2807C36.3747 60.1815 35.3068 60.5368 34.1743 60.6983V61.3119C34.4979 61.3442 35.3392 61.538 35.4039 62.1839V68.4171C35.4039 69.1276 34.4655 69.4183 33.786 69.4829V70.1934C35.6951 70.0965 37.9603 70.0319 39.9665 70.1934V69.4829C39.287 69.4506 38.3486 68.9984 38.3486 68.4171V62.4746C38.8016 61.538 40.2254 60.8598 41.5845 61.2473C42.1993 61.4088 42.6523 62.2485 42.7171 62.9913V68.4171C42.7171 69.1276 41.7786 69.4183 41.0991 69.4829V70.1934C43.0083 70.0965 45.2734 70.0319 47.2797 70.1934V69.4829C46.5354 69.386 45.597 68.9338 45.597 68.3525ZM52.6836 68.8047C51.8747 68.8047 51.7129 67.7389 51.7129 67.7389V60.666H54.0427V59.7294H51.7129V57.0488H50.9039C50.9039 57.0488 50.3538 58.0177 49.4801 58.7282C48.6064 59.4387 47.5385 60.0201 47.5385 60.0201V60.666H49.0271V67.8035C49.0271 69.063 49.7066 70.2903 51.7129 70.2903C53.7191 70.2903 54.3339 68.8692 54.3339 68.8692L53.6868 68.4171C53.6868 68.3848 53.4279 68.8047 52.6836 68.8047ZM61.6794 68.3525C59.2202 68.1587 58.7024 66.7377 58.7024 66.7377L65.0771 61.5703L64.7859 61.0535C64.7859 61.0535 64.4623 61.0212 64.0093 60.666C63.5563 60.343 61.7765 58.922 59.1878 59.6002C56.6962 60.2461 54.3663 62.6684 55.2724 66.2855C56.1137 69.709 59.1878 70.2257 60.8705 70.258C63.2327 70.2903 64.9477 68.3525 65.1095 68.0941L64.6241 67.4482C64.5594 67.4482 63.5886 68.514 61.6794 68.3525ZM58.1523 62.6038C58.4112 61.3442 58.7024 60.6983 59.7703 60.343C60.8705 59.9878 61.5824 60.7306 61.8412 61.1181C62.0678 61.5057 62.5531 62.3454 62.2619 62.5715L58.2817 65.7365C58.3141 65.7365 57.8934 63.9279 58.1523 62.6038ZM72.1638 59.6325C71.193 59.9232 70.5135 60.8921 70.2222 61.7964L70.1899 59.4064H69.3809C68.4748 60.1492 67.407 60.5045 66.2744 60.666V61.2796C66.598 61.3119 67.4393 61.5057 67.5041 62.1516V68.3848C67.5041 69.0953 66.5657 69.386 65.8861 69.4506V70.1611C67.7953 70.0642 69.9634 69.9996 71.9696 70.1611V69.4506C71.2901 69.4183 70.3517 68.9661 70.3517 68.3848V63.5081C70.384 62.8944 70.6752 62.2808 71.0959 61.8932C71.4519 61.538 72.0667 61.9578 72.455 62.1839C73.0698 62.41 73.717 62.2485 74.17 61.6672C74.4613 61.3119 74.4613 60.6337 74.0082 60.0847C73.4905 59.6325 72.8433 59.4064 72.1638 59.6325ZM107.597 59.6325C106.626 59.9232 105.947 60.8921 105.655 61.7964L105.623 59.4064H104.814C103.908 60.1492 102.84 60.5045 101.708 60.666V61.2796C102.031 61.3119 102.872 61.5057 102.937 62.1516V68.3848C102.937 69.0953 101.999 69.386 101.319 69.4506V70.1611C103.228 70.0642 105.396 69.9996 107.403 70.1611V69.4506C106.723 69.4183 105.785 68.9661 105.785 68.3848V63.5081C105.785 62.8944 106.108 62.2808 106.529 61.8932C106.885 61.538 107.5 61.9578 107.888 62.1839C108.471 62.41 109.15 62.2485 109.603 61.6672C109.894 61.3119 109.894 60.6337 109.441 60.0847C108.956 59.6325 108.276 59.4064 107.597 59.6325ZM87.5019 68.3525V57.5978V55.2079H86.5635C85.6575 55.9507 84.5896 56.306 83.4571 56.4675V57.0811C83.7807 57.1134 84.622 57.3072 84.6867 57.9531V68.3525C84.6867 69.063 83.7483 69.3537 83.0688 69.4183V70.1288C84.9779 70.0319 87.146 69.9673 89.1522 70.1288V69.4183C88.4404 69.386 87.5019 68.9338 87.5019 68.3525ZM84.8485 55.434C85.528 55.0464 85.884 54.3036 85.6898 53.5608C85.3986 52.8826 84.6543 52.4304 83.9748 52.3012C81.5802 51.7845 79.6387 52.5596 77.8266 54.6912C76.4028 56.3383 76.6617 58.6959 76.5969 60.666H74.9466V61.538H76.5969V68.3525C76.5969 69.063 75.6585 69.3537 74.979 69.4183V70.1288C76.8882 70.0319 78.9915 69.9673 80.9978 70.1288V69.4183C80.3182 69.386 79.3798 68.9338 79.3798 68.3525V61.538H81.4832V60.666H79.3798C79.3798 60.666 79.2827 55.2079 79.8329 54.3682C80.3506 53.5285 80.7713 53.5931 81.4508 53.5931C82.3569 53.6577 82.6481 54.7235 83.3276 55.2402C83.6512 55.5955 84.3308 55.5955 84.8485 55.434ZM95.1063 59.3095C91.9028 59.3095 89.2817 61.5703 89.314 64.7999C89.3464 67.8035 91.9028 70.258 95.1063 70.258C98.3099 70.258 100.899 67.8035 100.899 64.7999C100.866 61.6349 98.6011 59.3095 95.1063 59.3095ZM95.1063 69.3537C93.3589 69.3537 92.3558 67.3513 92.3558 64.7676C92.3558 62.1839 93.3589 60.0846 95.1063 60.1169C96.8537 60.1169 97.8245 62.2162 97.8568 64.7676C97.8568 67.3836 96.9184 69.3537 95.1063 69.3537ZM119.214 68.8047C118.728 68.8047 118.47 68.514 118.47 67.4159V61.9901C118.47 61.9901 118.372 59.2449 114.489 59.2449C111.124 59.2449 110.153 61.3119 110.283 62.087C110.347 62.4746 110.768 62.7652 111.221 62.7975C112.127 62.8298 112.677 61.6672 113.195 60.8921C113.68 60.1169 114.166 60.0201 114.554 60.0524C115.169 60.0846 115.848 60.7952 115.848 61.538V63.4112C115.848 63.4112 115.331 63.6049 114.684 63.7987C113.713 64.0894 112.548 64.3478 112.289 64.4769C111.998 64.6061 110.056 65.2844 110.056 67.6743C110.056 67.6743 110.186 70.1288 113.033 70.1611C114.716 70.1611 115.978 68.8692 115.978 68.8692C115.978 68.8692 116.755 70.258 118.275 70.1934C120.185 70.1288 120.735 68.191 120.735 68.191L120.282 67.9649C120.249 68.0295 119.699 68.7724 119.214 68.8047ZM115.816 66.7377C115.784 67.1252 116.107 68.6432 114.133 68.6755C112.839 68.6755 112.807 67.4805 112.807 67.0284C112.742 64.8645 115.816 64.5738 115.816 64.5738V66.7377ZM26.8935 53.2701V53.9806C27.573 54.0129 28.5114 54.4651 28.5114 55.0464V68.3848C28.5114 69.0953 27.573 69.386 26.8935 69.4506V70.1611C28.8027 70.0642 31.1649 69.9996 33.1711 70.1611V69.4506C32.4916 69.4183 31.5532 68.9661 31.5532 68.3848V55.0464C31.5532 54.3359 32.4916 54.0452 33.1711 53.9806V53.2701C31.2943 53.367 28.8998 53.4316 26.8935 53.2701Z" fill="#CAAD59"></path>
    <path d="M95.1688 39.0918C95.2982 39.0918 95.4276 38.9949 95.4924 38.8658C96.3337 36.1852 96.8838 35.1194 98.1134 33.0524C98.2105 32.8909 98.1458 32.6972 98.0164 32.6326C97.8546 32.5357 97.6604 32.6003 97.5957 32.7295C96.3013 34.9579 95.816 35.9914 94.9099 38.7366C94.8452 38.898 94.9746 39.0595 95.1364 39.1241C95.1364 39.0918 95.1364 39.0918 95.1688 39.0918ZM142.898 37.9938C142.834 37.8323 142.672 37.7354 142.51 37.8C142.348 37.8646 142.251 38.0261 142.316 38.1875C143.092 40.5775 143.513 43.0966 143.513 45.7449C143.513 50.88 141.928 55.6598 139.209 59.5677C139.112 59.6969 139.145 59.8907 139.274 60.0198C139.339 60.0521 139.404 60.0844 139.468 60.0844C139.565 60.0844 139.662 60.0521 139.727 59.9552C142.51 55.9182 144.128 51.0415 144.128 45.7772C144.128 43.032 143.707 40.416 142.898 37.9938ZM103.032 27.1099C103.097 27.1099 103.161 27.0776 103.226 27.0453C107.498 23.4604 112.999 21.2966 119.017 21.2966C122.771 21.2966 126.298 22.1363 129.469 23.6219C129.631 23.6865 129.825 23.6219 129.89 23.4604C129.955 23.2989 129.89 23.1052 129.728 23.0406C126.492 21.5226 122.836 20.6506 119.017 20.6506C112.869 20.6506 107.206 22.8791 102.838 26.5286C102.708 26.6255 102.676 26.8515 102.806 26.9807C102.838 27.0776 102.935 27.1099 103.032 27.1099Z" fill="#CAAD59"></path>
    <path d="M144.451 69.2563C144.451 69.0625 144.321 68.9656 144.095 68.9656H143.706V69.9345H143.868V69.5146H144.03L144.289 69.9345H144.451L144.159 69.5146C144.321 69.5146 144.451 69.4177 144.451 69.2563ZM143.868 69.4177V69.1271H144.062C144.159 69.1271 144.289 69.1594 144.289 69.2563C144.289 69.4177 144.159 69.4177 144.062 69.4177H143.868ZM144.062 68.6104C143.609 68.6104 143.189 68.9656 143.189 69.45C143.189 69.9345 143.577 70.2897 144.062 70.2897C144.515 70.2897 144.936 69.9345 144.936 69.45C144.904 68.9656 144.515 68.6104 144.062 68.6104ZM144.062 70.1605C143.674 70.1605 143.383 69.8699 143.383 69.45C143.383 69.0625 143.674 68.7395 144.062 68.7395C144.451 68.7395 144.742 69.0302 144.742 69.45C144.742 69.8699 144.418 70.1605 144.062 70.1605Z" fill="#CAAD59"></path>
    <path d="M139.73 34.8931C138.791 35.3453 138.047 35.4744 137.044 35.3453C136.656 35.2807 136.397 35.2807 136.203 35.2484C136.073 35.2484 135.976 35.2161 135.847 35.2161C137.238 34.4087 137.529 32.8584 137.529 32.8584C137.529 32.8584 138.306 33.3106 139.73 33.569C140.539 33.7304 141.315 33.6981 141.639 33.8596C141.024 34.0857 140.539 34.5056 139.73 34.8931ZM132.708 30.0487C132.287 30.1455 131.478 30.2101 130.702 30.2424C129.828 30.2747 128.857 30.3716 128.631 30.3716C128.21 30.3716 128.275 29.9841 129.213 29.8226C130.152 29.6611 131.543 29.3058 132.255 28.5953C132.967 27.8848 132.74 26.3992 133.031 26.3669C133.29 26.3346 132.934 27.8848 134.132 28.1755C132.934 28.886 133.517 29.8226 132.708 30.0487ZM126.171 36.411C124.036 37.6383 124.068 38.6395 123.971 38.8333C123.874 39.027 123.033 38.478 123.065 38.0581C123.097 37.6383 123.194 37.0893 123.388 36.185C123.615 35.0869 123.842 34.3764 123.971 34.3118C124.1 34.2472 125.168 33.8919 125.686 33.5367C126.171 33.1491 126.366 32.3094 126.592 32.3094C126.786 32.3094 126.398 33.795 127.175 34.4087C127.951 35.0223 129.731 35.2484 129.699 35.4098C129.666 35.5713 128.307 35.1838 126.171 36.411ZM127.66 50.9121C127.498 51.2996 126.204 50.5568 123.065 48.5867C120.314 46.875 119.149 46.2937 119.247 44.6143C119.311 43.4516 120.573 42.4181 121.673 42.1598C122.191 42.0629 122.353 42.1275 122.968 42.515C123.712 42.9995 123.874 43.1933 123.712 43.2901C122.806 43.7746 122.094 45.1633 122.482 46.003C123.194 47.6501 127.822 50.5245 127.66 50.9121ZM119.926 47.6824C119.894 47.8439 117.887 48.2961 116.043 48.5867C114.199 48.8774 113.519 49.1035 113.551 48.7805C113.584 48.4576 114.878 48.5544 116.27 47.8116C117.661 47.0688 117.952 46.0999 118.276 46.0676C118.599 46.0353 118.373 46.1645 118.891 46.7136C119.441 47.2949 119.991 47.521 119.926 47.6824ZM97.6631 27.4327C96.6923 27.691 96.0775 27.1743 95.9804 27.0451C95.8833 26.9159 95.948 26.7867 96.1422 26.8836C96.6599 27.1097 96.8865 27.0128 96.8865 27.0128C96.8865 27.0128 96.7894 26.593 96.9512 26.1085C97.0159 25.9147 97.1777 25.721 97.3395 25.6241C97.4689 25.5272 97.566 25.721 97.4689 25.7855C97.4042 25.8824 97.3071 26.0439 97.2748 26.27C97.2101 26.7221 97.6954 26.819 97.9543 26.593C98.2132 26.3669 98.2779 26.0439 98.3426 25.8501C98.4073 25.6564 98.5368 25.7532 98.5691 25.8824C98.5368 25.9793 98.6338 27.1743 97.6631 27.4327ZM95.3979 24.2676C94.4272 24.526 93.8447 23.977 93.7153 23.8478C93.6182 23.7186 93.6829 23.5894 93.8771 23.6863C94.3625 23.9124 94.6213 23.8478 94.6213 23.8478C94.6213 23.8478 94.4919 23.2987 94.6537 22.9435C94.8155 22.5559 95.3009 22.3298 95.3656 22.2975C95.5597 22.233 95.5921 22.4267 95.495 22.459C95.3979 22.4913 95.042 22.6528 94.9773 23.105C94.9126 23.5571 95.3979 23.654 95.6568 23.4279C95.9157 23.2018 95.9804 22.8789 96.0451 22.6851C96.1098 22.4913 96.2393 22.5882 96.2716 22.7174C96.304 22.8143 96.4011 24.0092 95.3979 24.2676ZM146.59 32.9876C146.234 32.7616 145.652 32.5032 144.648 31.9864C142.642 30.953 141.801 31.0175 140.83 30.8238C139.568 30.5331 139.924 30.307 138.015 29.758C136.17 29.2413 135.555 29.3058 135.555 29.3058C136.009 27.8525 136.947 28.6599 137.432 28.563C137.853 28.4661 138.079 28.2401 138.047 27.5941C138.015 26.9482 138.435 26.3346 138.435 26.3346C138.435 26.3346 138.759 26.2377 138.824 26.1731C138.888 26.1408 138.888 26.0439 138.824 25.947C138.727 25.7855 138.533 25.4303 138.468 25.0427C138.371 24.4937 138.63 24.0738 138.533 23.8801C136.882 23.3633 133.711 24.8812 134.035 24.4614C136.559 22.7497 139.795 22.8466 139.147 22.459C138.274 21.9423 138.468 21.587 137.303 20.7473C136.688 20.3275 135.879 20.1983 135.038 20.2952C135.2 20.0045 135.62 19.2617 135.458 18.8741C135.264 18.422 132.514 19.0679 130.637 19.1325C128.76 19.1971 127.66 18.7772 127.66 18.7772C127.66 18.7772 127.951 19.5201 129.213 19.8107C130.378 20.0691 131.349 19.8753 131.608 19.843C131.64 19.843 131.802 20.1014 131.802 20.1014C131.802 20.1014 131.381 20.2629 130.313 20.2629C129.245 20.2629 128.339 19.9076 128.339 19.9076C128.339 19.9076 129.019 20.715 130.184 20.8765C131.414 21.038 132.19 20.7796 132.19 20.7796L132.384 21.038C130.637 21.7162 129.213 20.8765 129.213 20.8765C129.213 20.8765 129.472 21.4901 130.475 21.6839C131.414 21.8777 131.996 21.7162 132.093 21.6839C131.802 22.0715 131.705 22.5559 131.608 23.0404C131.511 23.3956 131.446 23.7509 131.414 24.1707C131.122 25.398 129.796 26.3992 129.99 26.5284C130.184 26.6575 132.417 25.4949 132.417 25.4949C132.417 25.4949 132.417 26.9805 131.672 27.9494C130.928 28.9183 129.99 28.7245 128.695 29.0475C127.983 29.2413 127.789 29.4027 127.336 29.3381C126.689 29.2735 125.815 29.2413 125.006 29.435C123.939 29.7257 122.677 30.5008 121.965 30.6623C121.35 30.7915 119.344 30.9853 118.502 31.2436L117.887 31.4374C117.37 31.6312 116.981 31.7604 116.593 31.7927C116.367 31.7927 116.075 31.7927 115.752 31.7281C115.266 31.5989 114.684 31.4697 113.94 31.502C113.163 31.5343 112.742 31.5989 111.448 31.9541C110.121 32.3094 108.698 32.7615 108.018 32.7615C107.015 32.7615 106.724 32.5355 105.915 32.2125C105.526 32.051 104.556 32.1156 103.876 32.3094C103.488 32.0187 103.132 31.7281 102.938 31.502C102.517 31.0175 102.517 30.1455 101.934 29.4996C101.352 28.8537 101.255 28.0463 101.287 27.465C101.32 26.8836 101.417 26.7221 101.287 26.0762C101.158 25.4303 100.737 25.1396 100.64 25.1719C100.543 25.2042 100.414 25.8178 100.575 26.27C100.77 26.9159 100.672 27.4972 100.672 28.1109C100.672 28.4661 100.899 29.0798 100.834 29.0798C100.77 29.0798 100.317 28.7245 100.219 28.0786C100.187 27.8202 100.187 26.4315 99.8311 25.9793C99.4752 25.5272 99.4428 24.6552 99.3781 24.3322C99.184 23.1695 98.8927 22.2652 98.7309 22.3621C98.6662 22.3944 98.6015 22.5882 98.5691 22.8789C98.4721 23.5248 98.5691 24.2999 98.6338 24.7521C98.4073 24.3968 98.0514 24.203 97.7278 24.4291C97.6631 24.4614 97.566 24.5583 97.4689 24.6229C97.566 24.0738 97.5984 23.4925 97.5984 23.105C97.5984 22.4267 97.3718 22.3944 96.9512 22.2652C96.5629 22.1361 96.5629 22.0069 96.3687 21.6516C96.1422 21.2964 95.8186 21.1026 95.495 21.2964C95.1714 21.4901 94.589 22.1038 94.1359 22.1038C93.6829 22.1038 93.5211 22.233 93.2622 22.8466C92.971 23.4602 92.8092 23.2341 92.7445 23.6863C92.6798 24.0092 93.1652 25.3334 94.4595 25.7532C94.8478 25.8824 95.2038 25.947 95.5274 26.0116C95.3009 26.1408 95.0096 26.3669 94.9773 26.8513C94.9126 27.6264 95.6245 28.7245 96.757 29.0798C97.2748 29.2413 98.0837 29.3058 98.7309 29.2413C99.637 29.3704 100.219 29.9195 100.834 30.3393C101.223 30.63 101.902 31.4374 102.258 31.7604C102.387 31.8895 103.261 32.5032 103.326 32.5678C103.261 32.6001 103.229 32.6647 103.196 32.697C103.002 32.6324 102.032 31.9218 101.773 31.7281C101.384 31.4051 100.317 30.1778 99.1192 29.6934C98.9251 29.6288 98.6015 29.758 98.019 29.8226C97.4042 29.8872 96.9835 29.7903 96.8217 29.758C96.6276 29.7257 96.4982 29.9518 95.5921 30.2747C94.686 30.5977 94.0065 31.0821 93.78 31.2436C93.5535 31.4051 93.6829 31.5343 93.8447 31.5666C94.0065 31.5989 95.6568 31.9541 96.4011 31.5343C97.1453 31.1144 97.8249 30.8561 98.4073 30.8561C98.9898 30.8561 99.5723 31.0821 100.252 31.7281C100.931 32.374 101.061 32.2448 101.449 32.3417C101.837 32.4386 102.549 32.8907 103.067 33.3106C103.585 33.7304 103.714 33.8273 104.394 34.1826C105.073 34.5378 108.859 37.1538 109.086 37.2507C109.312 37.3476 109.571 36.9601 109.474 36.8632C109.377 36.7663 109.118 36.6048 109.053 36.5079C108.989 36.411 108.956 36.0881 108.892 35.9912C108.827 35.8943 108.309 35.6359 107.694 35.2484C107.241 34.99 106.788 34.667 106.368 34.3764C107.565 34.2472 109.377 34.2795 111.933 34.3441C113.616 34.4087 115.072 34.0211 116.237 34.0211C117.532 34.0211 118.535 34.4087 119.861 34.4087C122.288 34.4087 122.806 34.3764 122.806 34.3764C122.806 34.3764 122.094 37.057 122.094 39.027C122.094 40.6418 121.318 40.7064 119.635 41.7722C118.438 42.5473 117.985 43.5162 117.985 43.5162C117.952 43.5162 114.813 43.6454 112.289 44.905C109.83 46.1322 109.345 46.2291 109.183 46.2937C108.989 46.3583 108.892 46.326 108.892 46.326C108.859 46.2937 106.335 45.2279 104.361 44.9373C102.646 44.7112 101.579 45.0341 101.255 45.0341C99.4428 45.0341 97.6631 45.0987 97.6631 45.0987L98.828 44.2267C99.1516 44.033 99.7017 43.6454 99.7664 43.3224C99.8311 42.838 97.113 41.9983 95.495 41.094C93.8447 40.1897 93.1005 39.2531 93.1005 39.2531C93.1005 39.2531 92.971 40.0282 93.9418 40.9325C94.8155 41.7399 95.7215 42.0306 95.9804 42.1598C95.9804 42.1598 95.9804 42.1598 95.9804 42.1921V42.4827C95.948 42.4827 95.5274 42.4181 94.6537 41.9014C93.7476 41.3524 93.1328 40.6096 93.1328 40.6096C93.1328 40.6096 93.327 41.6753 94.233 42.3859C95.2361 43.161 96.0128 43.2901 96.0128 43.2901L96.0451 43.4516V43.6131C94.2007 43.2901 93.3917 41.8691 93.3917 41.8691C93.3917 41.8691 93.2946 42.4827 94.0712 43.1933C94.6213 43.71 95.3332 44.1299 96.0775 44.3882L96.1098 44.9373C95.6568 44.8404 95.2361 44.7112 95.0744 44.4528C94.8155 44.0976 94.3948 43.6777 94.0389 43.6131C93.1975 43.5162 92.7121 44.1621 92.065 44.7112C91.4178 45.2279 90.9 44.9696 89.8969 45.3248C88.9261 45.6801 88.4084 46.8104 88.5055 47.0688C88.6026 47.3272 88.4408 47.3595 89.8969 47.0042C91.3531 46.649 91.4178 46.6167 92.8416 46.8104C94.2654 47.0042 95.1714 46.6167 96.1422 46.5844C97.6954 46.5521 97.7925 46.8427 100.608 47.4564C103.423 48.07 108.018 49.1681 108.083 49.2004C108.147 49.2327 109.118 49.7171 110.704 49.5879C112.354 49.4587 113.26 49.6202 115.299 49.3619C119.57 48.7805 120.67 48.1346 120.67 48.1346C120.67 48.1346 122.191 49.1681 124.262 50.3307C127.563 52.2039 129.893 53.2051 129.893 53.2051C129.893 53.2051 130.702 56.5316 131.737 58.1142C132.255 58.9216 133.064 59.5998 133.161 59.729C133.938 60.6333 134.649 61.4407 135.329 62.2804C135.167 62.2804 135.038 62.3127 134.876 62.3127C132.999 62.3773 131.899 61.9574 131.899 61.9574C131.899 61.9574 132.19 62.7002 133.452 62.9909C134.617 63.2493 135.588 63.0555 135.847 63.0232C135.879 63.0232 136.041 63.2816 136.041 63.2816C136.041 63.2816 135.62 63.443 134.552 63.443C133.485 63.443 132.578 63.0878 132.578 63.0878C132.578 63.0878 133.258 63.8952 134.423 64.0567C135.653 64.2182 136.429 63.9598 136.429 63.9598L136.591 64.1536C136.591 64.1859 136.623 64.1859 136.623 64.2182C134.876 64.8641 133.452 64.0567 133.452 64.0567C133.452 64.0567 133.679 64.638 134.714 64.8641C135.523 65.0579 136.138 65.0902 136.817 64.8964C136.85 65.2516 136.688 65.4454 136.559 65.7684C136.364 66.1882 136.041 66.8665 136.203 67.1894C136.559 67.9645 137.724 67.8353 138.533 68.0937C139.309 68.3844 139.374 68.9657 140.183 69.6116C140.992 70.2576 142.254 70.1284 142.383 69.9023C142.545 69.7085 142.674 69.8054 141.607 68.7396C140.539 67.7062 140.474 67.6416 139.892 66.3174C139.341 65.0902 139.309 65.3808 138.371 63.9921C138.597 63.766 138.694 63.6045 138.694 63.6045C138.694 63.6045 139.374 62.5387 139.18 62.0866C139.083 61.8282 138.306 61.8928 137.335 62.022C137.335 62.022 136.3 58.6632 135.555 56.4347C134.811 54.2063 133.679 51.881 133.614 51.8164C133.582 51.7195 133.517 51.4611 133.485 51.3319C133.452 51.2027 133.29 50.7506 132.999 50.3953C132.708 50.0724 131.769 49.3619 131.672 49.265C131.575 49.1681 131.025 48.393 129.699 47.0042C128.404 45.6155 126.042 43.6131 126.042 43.6131C126.139 43.0641 126.301 42.9349 126.819 42.3536C127.336 41.7722 128.016 41.1909 128.437 40.9002C130.184 39.7698 131.769 38.0904 132.417 37.3476C132.255 37.283 132.125 37.2184 132.093 37.1216L132.061 37.057V36.9924C132.061 36.9601 132.093 36.0235 133.258 35.7328C133.42 35.7005 133.549 35.6682 133.679 35.6359C133.679 35.6359 133.743 35.6359 133.84 35.6036C133.582 35.4421 133.517 35.2484 133.549 35.2807C133.614 35.313 134.196 35.4098 134.455 35.4421H134.488H134.52C134.908 35.4744 135.329 35.539 134.973 35.6682C134.326 35.862 134.293 35.8297 133.355 36.0881C132.417 36.3464 132.384 37.057 132.384 37.057C132.449 37.1538 133.161 37.3153 134.293 37.2507C135.426 37.1861 136.656 36.5725 137.529 36.4433C139.018 36.2173 141.477 36.8632 143.451 36.0881C144.713 35.5713 145.037 35.0223 145.49 34.7316C145.943 34.4733 146.525 34.118 146.687 33.8919C146.946 33.8273 147.011 33.246 146.59 32.9876Z" fill="#CAAD59"></path>
    <path d="M91.0615 28.6597C91.6763 28.6597 91.8704 28.4982 91.8704 28.4982C91.8704 28.4982 91.5792 28.1107 91.5468 27.5617C91.5468 27.3033 91.6116 27.0449 91.7086 26.8834C91.8057 26.722 91.9675 26.8834 91.9028 27.0126C91.8704 27.1418 91.8381 27.3356 91.9028 27.5617C92.0322 28.0461 92.55 27.9492 92.7117 27.594C92.8735 27.2387 92.8088 26.9157 92.7765 26.6574C92.7441 26.4313 92.9383 26.4636 93.003 26.5928C93.0677 26.722 93.6501 27.8846 92.7765 28.5628C91.9028 29.241 91.0615 28.9504 90.8997 28.8858C90.835 28.8212 90.835 28.6597 91.0615 28.6597ZM90.1878 29.3702C90.2525 29.6286 90.5761 29.887 91.1585 30.0807C91.3203 30.1453 91.2233 30.5329 91.6763 30.5652C93.2942 30.7589 95.7211 30.2099 96.1741 29.8547C96.4006 29.6932 96.2388 29.2733 95.7535 28.9181C95.2034 28.5305 94.5562 28.0138 94.1355 26.9803C93.7149 25.9146 93.2618 25.7854 92.9059 25.6562C92.647 25.5593 92.2264 25.5916 91.6763 26.0438C91.1262 26.4959 90.6732 26.4636 90.3819 27.0449C90.0907 27.6262 90.4467 27.9815 90.3819 28.3368C90.3172 28.7243 90.0907 28.9504 90.1878 29.3702Z" fill="#CAAD59"></path>
    <path d="M132.808 65.9623C130.769 67.351 128.504 68.4491 126.077 69.1596H126.045C125.883 69.2242 125.786 69.3857 125.851 69.5471C125.915 69.7086 126.077 69.8055 126.239 69.7409C128.731 68.9981 131.028 67.8678 133.131 66.4467C133.261 66.3499 133.326 66.1561 133.229 65.9946C133.131 65.8977 132.937 65.8654 132.808 65.9623Z" fill="#CAAD59"></path>
  </g>
  <defs>
    <clipPath id="clip0_980_21632">
      <rect width="174" height="88" fill="white"></rect>
    </clipPath>
  </defs>
</svg>
